<?xml version="1.0" encoding="utf-8"?>
<svg width="24" height="24" viewBox="0 0 24 24" xmlns="http://www.w3.org/2000/svg">
  <path fill="none" d="M0 0h24v24H0V0z"/>
  <path d="M 7 14 L 5 14 L 5 19 L 10 19 L 10 17 L 10.007 13.993 L 7 14 Z M 5 10 L 7 10 L 7 7 L 10 7 L 10 5 L 5 5 L 5 10 Z M 17 17 L 14 17 L 14 19 L 19 19 L 19 14 L 17 14 L 17 17 Z M 14 5 L 14 7 L 17 7 L 17 10 L 19 10 L 19 5 L 14 5 Z"/>
  <path fill="none" d="M 9.237 8.696 L 19.36 8.696 L 19.36 18.819 L 9.237 18.819 L 9.237 8.696 Z"/>
  <path d="M 10.152 17.576 L 11.601 16.341 L 10.251 14.887 L 11.58 13.826 L 13.945 16.457 L 11.28 18.855 L 10.152 17.576 Z" transform="matrix(-0.999981, 0.006193, -0.006193, -0.999981, 24.197966, 32.60607)"/>
  <path fill="none" d="M0 0h24v24H0V0z" transform="matrix(1, 0, 0, 1, 7.728422, 1.0343)"/>
  <path d="M 5.629 13.215 L 7.078 11.98 L 5.728 10.526 L 7.057 9.465 L 9.422 12.096 L 6.757 14.494 L 5.629 13.215 Z" transform="matrix(0.026334, 0.999653, -0.999653, 0.026334, 19.302671, 4.141145)"/>
</svg>