<?xml version="1.0" encoding="utf-8"?>
<svg width="24" height="24" viewBox="0 0 24 24" xmlns="http://www.w3.org/2000/svg">
  <path fill="none" d="M0 0h24v24H0V0z"/>
  <path d="M7 14H5v5h5v-2H7v-3zm-2-4h2V7h3V5H5v5zm12 7h-3v2h5v-5h-2v3zM14 5v2h3v3h2V5h-5z"/>
  <path fill="none" d="M 9.237 8.696 L 19.36 8.696 L 19.36 18.819 L 9.237 18.819 L 9.237 8.696 Z"/>
  <path fill="none" d="M0 0h24v24H0V0z" transform="matrix(1, 0, 0, 1, 7.728422, 1.0343)"/>
  <path d="M 4.688 12.879 L 5.83 11.977 L 4.765 10.916 L 5.814 10.142 L 7.679 12.062 L 5.577 13.812 L 4.688 12.879 Z" style="" transform="matrix(-0.998767, 0.049636, -0.049636, -0.998767, 12.953869, 23.632313)"/>
  <path d="M 16.368 12.881 L 17.51 11.979 L 16.445 10.918 L 17.494 10.144 L 19.359 12.064 L 17.257 13.814 L 16.368 12.881 Z" style="" transform="matrix(0.999135, -0.041574, 0.041574, 0.999135, -0.482571, 0.753014)"/>
</svg>