<?xml version="1.0" encoding="utf-8"?>
<svg version="1.1" width="24" height="24" viewBox="0 0 24 24" xmlns="http://www.w3.org/2000/svg">
  <path d="M9.5,3A6.5,6.5 0 0,1 16,9.5C16,11.11 15.41,12.59 14.44,13.73L14.71,14H15.5L20.5,19L19,20.5L14,15.5V14.71L13.73,14.44C12.59,15.41 11.11,16 9.5,16A6.5,6.5 0 0,1 3,9.5A6.5,6.5 0 0,1 9.5,3M9.5,5C7,5 5,7 5,9.5C5,12 7,14 9.5,14C12,14 14,12 14,9.5C14,7 12,5 9.5,5Z"/>
  <line style="stroke: rgb(0, 0, 0);" x1="7.65" y1="11.766" x2="10.824" y2="7.181"/>
  <line style="stroke: rgb(0, 0, 0);" x1="11.448" y1="9.171" x2="11.136" y2="6.283"/>
  <line style="stroke: rgb(0, 0, 0);" x1="8.742" y1="6.898" x2="11.24" y2="6.713"/>
  <line style="stroke: rgb(0, 0, 0);" x1="7.285" y1="11.801" x2="9.783" y2="11.616"/>
  <line style="stroke: rgb(0, 0, 0);" x1="7.441" y1="12.32" x2="7.129" y2="9.432"/>
</svg>