<?xml version="1.0" encoding="utf-8"?>
<svg width="24" height="24" viewBox="0 0 24 24" xmlns="http://www.w3.org/2000/svg">
  <path fill="none" d="M0 0h24v24H0V0z"/>
  <path d="M15.5 14h-.79l-.28-.27C15.41 12.59 16 11.11 16 9.5 16 5.91 13.09 3 9.5 3S3 5.91 3 9.5 5.91 16 9.5 16c1.61 0 3.09-.59 4.23-1.57l.27.28v.79l5 4.99L20.49 19l-4.99-5zm-6 0C7.01 14 5 11.99 5 9.5S7.01 5 9.5 5 14 7.01 14 9.5 11.99 14 9.5 14z"/>
  <path fill="none" d="M0 0h24v24H0V0z" transform="matrix(1, 0, 0, 1, 32.927972, -17.769699)"/>
  <path d="M 12.293 6.687 L 6.648 6.687 C 6.335 6.687 6.021 7.001 6.021 7.315 L 6.021 11.705 C 6.021 12.049 6.304 12.332 6.648 12.332 L 12.293 12.332 C 12.607 12.332 12.92 12.018 12.92 11.705 L 12.92 7.315 C 12.92 7.001 12.607 6.687 12.293 6.687 Z M 12.043 11.463 C 12.036 11.473 12.057 11.465 12.051 11.472 L 6.981 11.488 L 7.031 7.69 L 7.024 7.682 L 12.097 7.682 C 12.107 7.688 12.083 7.7 12.09 7.707 L 12.057 11.429 L 12.043 11.463 Z M 9.156 10.61 L 8.373 9.667 L 7.276 11.077 L 11.666 11.077 L 10.254 9.197 L 9.156 10.61 Z"/>
</svg>