<?xml version="1.0" encoding="utf-8"?>
<svg width="24" height="24" viewBox="0 0 24 24" xmlns="http://www.w3.org/2000/svg">
  <path fill="none" d="M0 0h24v24H0V0z"/>
  <path d="M7 14H5v5h5v-2H7v-3zm-2-4h2V7h3V5H5v5zm12 7h-3v2h5v-5h-2v3zM14 5v2h3v3h2V5h-5z" style="fill: rgb(255, 255, 255);"/>
  <path fill="none" d="M 9.237 8.696 L 19.36 8.696 L 19.36 18.819 L 9.237 18.819 L 9.237 8.696 Z"/>
  <path fill="none" d="M0 0h24v24H0V0z" transform="matrix(1, 0, 0, 1, 7.728422, 1.0343)"/>
  <path d="M 8.613 13.294 L 7.277 13.294 L 7.277 16.636 L 10.619 16.636 L 10.619 15.299 L 8.613 15.299 L 8.613 13.294 Z M 7.277 10.619 L 8.613 10.619 L 8.613 8.613 L 10.619 8.613 L 10.619 7.277 L 7.277 7.277 L 7.277 10.619 Z M 15.299 15.299 L 13.294 15.299 L 13.294 16.636 L 16.636 16.636 L 16.636 13.294 L 15.299 13.294 L 15.299 15.299 Z M 13.294 7.277 L 13.294 8.613 L 15.299 8.613 L 15.299 10.619 L 16.636 10.619 L 16.636 7.277 L 13.294 7.277 Z" transform="matrix(0.702236, 0.711944, -0.711944, 0.702236, 12.072571, -4.952146)" style="fill: rgb(255, 255, 255);"/>
</svg>