<?xml version="1.0" encoding="utf-8"?>
<svg version="1.1" width="24" height="24" viewBox="0 0 24 24" xmlns="http://www.w3.org/2000/svg">
  <path d="M 7.5 21.5 L 8.85 20.16 L 12.66 23.97 L 12 24 C 5.71 24 0.56 19.16 0.05 13 L 1.55 13 C 1.91 16.76 4.25 19.94 7.5 21.5 M 16.5 2.5 L 15.15 3.84 L 11.34 0.03 L 12 0 C 18.29 0 23.44 4.84 23.95 11 L 22.45 11 C 22.09 7.24 19.75 4.07 16.5 2.5 M 15.516 8.394 C 15.516 6.394 12.938 8.935 14.938 8.935 C 16.938 8.935 14.524 6.56 14.524 8.56 L 14.772 9.104 L 14.979 8.774 L 14.689 9.015 M 14.124 1.729 C 14.176 1.644 16.262 1.734 14.605 1.734 C 12.948 1.734 13.495 1.538 13.662 1.484 C 13.829 1.43 13.334 1.726 14.895 1.726 C 16.456 1.726 14.072 1.814 14.124 1.729 Z" style="fill: rgb(255, 255, 255);"/>
  <path fill="none" d="M 4.979 4.365 L 18.073 5.749 L 20.414 19.8 L 4.979 19.8 L 4.979 4.365 Z"/>
  <path d="M 13.586 5.452 L 8.441 5.452 C 7.733 5.452 7.161 6.031 7.161 6.739 L 7.155 17.029 C 7.155 17.736 7.727 18.315 8.434 18.315 L 16.158 18.315 C 16.866 18.315 17.445 17.736 17.445 17.029 C 17.438 17.029 17.334 9.311 17.445 9.311 L 13.586 5.452 Z M 8.441 17.029 L 8.441 6.739 L 12.943 6.739 L 12.943 9.954 L 16.158 9.954 L 16.158 17.029 L 8.441 17.029 Z" style="fill: rgb(255, 255, 255);"/>
</svg>