<?xml version="1.0" encoding="utf-8"?>
<svg version="1.1" width="24" height="24" viewBox="0 0 24 24" xmlns="http://www.w3.org/2000/svg" xmlns:bx="https://boxy-svg.com">
  <defs>
    <pattern id="pattern-0" x="0" y="0" width="25" height="25" patternUnits="userSpaceOnUse" viewBox="0 0 100 100">
      <rect x="0" y="0" width="50" height="100" style="fill: black;"/>
    </pattern>
  </defs>
  <path d="M9.5,3A6.5,6.5 0 0,1 16,9.5C16,11.11 15.41,12.59 14.44,13.73L14.71,14H15.5L20.5,19L19,20.5L14,15.5V14.71L13.73,14.44C12.59,15.41 11.11,16 9.5,16A6.5,6.5 0 0,1 3,9.5A6.5,6.5 0 0,1 9.5,3M9.5,5C7,5 5,7 5,9.5C5,12 7,14 9.5,14C12,14 14,12 14,9.5C14,7 12,5 9.5,5Z" style="fill: rgb(255, 255, 255);"/>
  <g transform="matrix(-0.168461, -0.063344, 0.063344, -0.168461, 11.202402, 9.37448)">
    <g id="layer1" transform="matrix(1.031452, 0.257126, -0.257126, 1.031452, 116.435753, -627.948059)" bx:origin="0.249 0.564">
      <path id="rect2985" d="m40.836 598.91v6.75h-5.4375l4 4.625 4 4.625 4-4.625 4-4.625h-5.0938v-6.75h-5.4688z" style="fill: rgb(255, 255, 255);"/>
    </g>
    <g id="g-1" transform="matrix(-1.031032, -0.258811, 0.258811, -1.031032, -100.528633, 620.93927)" bx:origin="0.064 0.625">
      <path id="path-1" d="m40.836 598.91v6.75h-5.4375l4 4.625 4 4.625 4-4.625 4-4.625h-5.0938v-6.75h-5.4688z" style="fill: rgb(255, 255, 255);"/>
    </g>
    <rect x="122.047" y="72.484" width="20.628" height="6.017" transform="matrix(-0.244578, 0.96963, -0.960674, -0.280082, 113.509232, -111.136368)" style="fill: rgb(255, 255, 255);"/>
  </g>
</svg>